PathFileType	4	(X/Y/Z)	8_coords_data.trc
DataRate	CameraRate	NumFrames	NumMarkers	Units	OrigDataRate	OrigDataStartFrame	OrigNumFrames
30.0	30.0	5	21	m	30.0	10	56
Frame#	Time	THUMB_TIP	THUMB_IP	THUMB_MCP	THUMB_CMC	INDEX_TIP	INDEX_DIP	INDEX_PIP	INDEX_MCP	MIDDLE_TIP	MIDDLE_DIP	MIDDLE_PIP	MIDDLE_MCP	RING_TIP	RING_DIP	RING_PIP	RING_MCP	PINKY_TIP	PINKY_DIP	PINKY_PIP	PINKY_MCP	WRIST
X1	Y1	Z1	X2	Y2	Z2	X3	Y3	Z3	X4	Y4	Z4	X5	Y5	Z5	X6	Y6	Z6	X7	Y7	Z7	X8	Y8	Z8	X9	Y9	Z9	X10	Y10	Z10	X11	Y11	Z11	X12	Y12	Z12	X13	Y13	Z13	X14	Y14	Z14	X15	Y15	Z15	X16	Y16	Z16	X17	Y17	Z17	X18	Y18	Z18	X19	Y19	Z19	X20	Y20	Z20	X21	Y21	Z21
8	0.2999999999999987	0.5480383862337659	-0.02384985754877056	-0.1240439921154276	0.5255554285472259	-0.01954732559446426	-0.12204278436823451	0.4969304951769338	-0.01143498918421193	-0.11289821289039936	0.4711683078936949	-0.025104162300477517	-0.07914390334775145	0.5641605016943019	0.06092101520413118	-0.15836155453269096	0.5520255615349066	0.0512045072448889	-0.14907001534879477	0.5363649058125164	0.04193361573134846	-0.13172630565654797	0.5110364092589017	0.024456594558486144	-0.10228726546742406	0.5101195389102968	-0.012338340355345867	-0.10927829740520206	0.5247468296709471	-0.010567510790066348	-0.11980951422255615	0.5461078527575876	0.009243241024413318	-0.11900306816911538	0.5248372741984997	0.020295773771248804	-0.08129959447448343	0.5291527925336523	-0.022888491400063993	-0.10809637834896463	0.5457234784942456	-0.017074238328211422	-0.11217152595510727	0.5628308587329728	-0.001368705369413803	-0.10317965435639459	0.5347980657004885	0.0025903653904779667	-0.07431429263137768	0.6024127819431241	0.009133133072393496	-0.05859473795070946	0.5867152901188983	0.002478532053855731	-0.06011297235699775	0.5668730653034855	-0.004210152108427567	-0.06164908353521359	0.5341255254314835	-0.017758470635430568	-0.06835170603857066	0.462283081001861	-0.023011742144276925	-0.051989820119430985
9	0.33333333333333187	0.5480842356155027	-0.02401675286096927	-0.12400005977016032	0.5256084850658981	-0.019672782489673968	-0.12200743370256745	0.4969969808971427	-0.011492906218480314	-0.11288101855809424	0.4712029637568924	-0.025114409490849754	-0.07913174703455905	0.564491183855768	0.06078532170425799	-0.15815688063894362	0.5523164453397706	0.051086938794624226	-0.14889852705932632	0.5366098011009499	0.041826703505420504	-0.13159074839932178	0.5111791603126332	0.024377167190994475	-0.10222355095885882	0.5102138488499752	-0.012444358129318767	-0.10922654315863572	0.5248721388667545	-0.010732609499125023	-0.11972437390651025	0.5462583663377467	0.009050339494609982	-0.11890354891282456	0.5249599158749025	0.02016294387708173	-0.08123348184730894	0.5292166544410646	-0.023059709913074933	-0.10802796641941093	0.5458028617892912	-0.017281201659902656	-0.11209079402708244	0.5629156414098779	-0.001596011051847257	-0.10307372420112454	0.5348692193697232	0.0024576326307803598	-0.07423473986325602	0.6025056893073227	0.008788339616443097	-0.05841506233508287	0.5867969562448547	0.0021688985694005014	-0.0599702812254167	0.5669297388027572	-0.004443914994231246	-0.06151183462412402	0.5341524213672423	-0.017889737263888428	-0.0682750273778675	0.4622830810018608	-0.023011742144276925	-0.051989820119430985
10	0.3666666666666651	0.5481011035511345	-0.02412898493481641	-0.12399225333695207	0.5256323741996666	-0.019754226885316584	-0.12198783488293152	0.49702837570225056	-0.011530557780634498	-0.1128772621009097	0.47122196853107345	-0.025121087862129854	-0.07912497564473919	0.564736102836642	0.06071549477523275	-0.1579717152834924	0.5525284117902121	0.05102800116694983	-0.14874540795583463	0.5367781903879909	0.04177138921249968	-0.13147533285739493	0.5112963544166351	0.024347345263833864	-0.10213739117765397	0.5102349150457439	-0.012538781313513936	-0.10918789926308314	0.5249290573443504	-0.01080960207813153	-0.11963261664940944	0.5463525156093274	0.00893391095821261	-0.11883344273060498	0.5250381207175888	0.020083259366656003	-0.08118325652301539	0.5292581603766445	-0.023171547009521398	-0.107986736589817	0.5458594453204787	-0.017434824804911653	-0.11204719919409795	0.5629570792875628	-0.0017463242373552124	-0.10300718582743779	0.5349140982217038	0.00238137013276829	-0.07417535990317936	0.6025528017695263	0.008579906055604214	-0.058300758002734265	0.5868371574068239	0.001982254579531162	-0.05987857841879174	0.5669561180004277	-0.004589317577563201	-0.06141829608947713	0.5341681798741884	-0.017982462485043538	-0.06823432381221672	0.462283081001861	-0.023011742144276925	-0.051989820119430985
11	0.39999999999999825	0.5480864209160574	-0.024174936509859135	-0.12401484618837383	0.5256237568522267	-0.019780360460553315	-0.12198594882715674	0.4970227416946116	-0.011534467777204016	-0.11288610345437344	0.4712359368106963	-0.0251275526751511	-0.07911986681426075	0.5648950897858324	0.060717695106413005	-0.15781426758285483	0.5526632688634378	0.05103556228322548	-0.14861432948976816	0.536874618964589	0.041769314929232304	-0.13138455794902515	0.5113379614071124	0.024357616020362682	-0.10208698201006655	0.5102626543311607	-0.012658029162298967	-0.10919477856809873	0.5249805655125583	-0.01087012051701819	-0.1195960512369898	0.5464064362110723	0.00887117451070396	-0.11880682032084727	0.5250899191186654	0.02002422902433232	-0.08115893332748259	0.5292778588994934	-0.023230852002784963	-0.1079879227762559	0.5458868637674262	-0.017513250586184914	-0.11204378166653828	0.5629723553596896	-0.0018193623224924682	-0.1029901731474206	0.5349325161319116	0.0023419584349541056	-0.07416012528700222	0.602571066585605	0.00846133805647964	-0.05825134498573259	0.5868521104572556	0.001874954761689196	-0.05984319087310075	0.5669566933713157	-0.00465374535316454	-0.061379573893964534	0.5341719124019448	-0.01803502052178596	-0.06823399309999645	0.4622830810018608	-0.023011742144276925	-0.051989820119430985
12	0.43333333333333146	0.5480317843237961	-0.024166160592999142	-0.12407933694914758	0.525572940236866	-0.019768326949302417	-0.12201551003747763	0.4969777683101655	-0.011516561004372372	-0.11290263446099036	0.4712203846829782	-0.025135523212643784	-0.0791243713758113	0.5649481399124114	0.060780775802199094	-0.1577201441690692	0.5527047705020147	0.051091805142325475	-0.1485427941685149	0.5368910543191362	0.04181499410951628	-0.1313417188954713	0.5113312656724139	0.024363356230514333	-0.10208810999545553	0.5102522127578015	-0.012696237386666032	-0.10918787392509349	0.5249815211767167	-0.010888311915910331	-0.11956953463004177	0.5463860408153556	0.008876876431187064	-0.11879919792256022	0.5250884176239072	0.020037340358452504	-0.08114281450190641	0.5292516078976022	-0.023227586230869735	-0.10800821279845368	0.5458669913320249	-0.01753096991552061	-0.1120674733078098	0.5629444439286867	-0.0018297290312818681	-0.10301144622614339	0.5349271687710399	0.0023549017416315543	-0.074162841545239	0.6025725287471477	0.008411220634269023	-0.05823320033508639	0.5868482248901442	0.0018396344932346542	-0.05983336401533501	0.5669446907200102	-0.004664940338274581	-0.061366939184541947	0.5341664209160364	-0.01804209082979724	-0.0682604378887598	0.4622830810018609	-0.023011742144276925	-0.051989820119430985
